<svg width="26" height="23" viewBox="0 0 26 23" fill="none" xmlns="http://www.w3.org/2000/svg">
<path d="M4.50098 5.75H23.1143C24.2333 5.75 25.0947 6.60371 25.0947 7.59375V20.0938C25.0947 21.0838 24.2333 21.9375 23.1143 21.9375H3.71973C2.26979 21.9375 1.09473 20.7624 1.09473 19.3125V3.6875C1.09473 2.23757 2.26979 1.0625 3.71973 1.0625H21.6885C22.7068 1.0625 23.5322 1.88796 23.5322 2.90625C23.5322 3.06175 23.4065 3.1875 23.251 3.1875H4.50098C3.79319 3.1875 3.21973 3.76097 3.21973 4.46875C3.21973 5.17653 3.79319 5.75 4.50098 5.75ZM18.8447 13.8438C18.8447 14.9827 19.7683 15.9062 20.9072 15.9062C22.0462 15.9062 22.9697 14.9827 22.9697 13.8438C22.9697 12.7048 22.0462 11.7812 20.9072 11.7812C19.7683 11.7812 18.8447 12.7048 18.8447 13.8438Z" fill="#754CA5" stroke="white"/>
</svg>
