<svg width="26" height="20" viewBox="0 0 26 20" fill="none" xmlns="http://www.w3.org/2000/svg">
<g clip-path="url(#clip0_105_1656)">
<line x1="0.5" y1="-0.5" x2="4.3" y2="-0.5" transform="matrix(0.382683 0.92388 0.92388 -0.382683 6.6001 1.43213)" stroke="#39386E" stroke-linecap="round"/>
<line x1="19.6705" y1="2.08541" x2="18.2163" y2="5.59615" stroke="#39386E" stroke-linecap="round"/>
<line x1="0.5" y1="-0.5" x2="4.3" y2="-0.5" transform="matrix(0.707107 0.707107 0.707107 -0.707107 1 4.87256)" stroke="#39386E" stroke-linecap="round"/>
<line x1="25" y1="5.57967" x2="22.313" y2="8.26667" stroke="#39386E" stroke-linecap="round"/>
<line x1="0.5" y1="-0.5" x2="4.3" y2="-0.5" transform="matrix(0 1 1 0 13.2666 0)" stroke="#39386E" stroke-linecap="round"/>
<path d="M24.2025 11.977C24.2278 11.9069 24.2323 11.8727 24.2331 11.8669C24.2331 11.8668 24.2331 11.8667 24.2331 11.8666C24.2322 11.8602 24.2275 11.8259 24.2025 11.7567C24.1739 11.6776 24.1269 11.5749 24.0574 11.4492C23.9184 11.1981 23.7054 10.8837 23.4204 10.5267C22.8515 9.81398 22.0195 8.96134 20.986 8.142C18.9118 6.49759 16.0857 5.03353 12.9999 5.03353C9.91421 5.03353 7.08806 6.49759 5.01384 8.142C3.98035 8.96134 3.14841 9.81398 2.57942 10.5267C2.29445 10.8837 2.08144 11.1981 1.9425 11.4492C1.87299 11.5749 1.82598 11.6776 1.79741 11.7567C1.77241 11.8259 1.76769 11.8602 1.76681 11.8666C1.7668 11.8667 1.76678 11.8668 1.76677 11.8669C1.76678 11.8669 1.7668 11.867 1.76681 11.8671C1.76769 11.8736 1.77241 11.9078 1.79741 11.977C1.82598 12.0561 1.87299 12.1588 1.9425 12.2845C2.08144 12.5356 2.29445 12.85 2.57942 13.207C3.14841 13.9197 3.98035 14.7724 5.01384 15.5917C7.08806 17.2361 9.91421 18.7002 12.9999 18.7002C16.0857 18.7002 18.9118 17.2361 20.986 15.5917C22.0195 14.7724 22.8515 13.9197 23.4204 13.207C23.7054 12.85 23.9184 12.5356 24.0574 12.2845C24.1269 12.1588 24.1739 12.0561 24.2025 11.977Z" fill="#E7CCFF" stroke="#39386E"/>
<circle cx="13" cy="12" r="5" fill="#39386E"/>
</g>
<defs>
<clipPath id="clip0_105_1656">
<rect width="26" height="20" fill="white"/>
</clipPath>
</defs>
</svg>
