<svg width="23" height="23" viewBox="0 0 23 23" fill="none" xmlns="http://www.w3.org/2000/svg">
<circle cx="11.85" cy="11.15" r="10.65" fill="#9B9CB7" stroke="#9B9CB7"/>
<path d="M9.26695 7.865C9.41162 7.72967 9.57028 7.60133 9.74295 7.48C9.92028 7.35867 10.1116 7.25133 10.317 7.158C10.527 7.06467 10.751 6.99233 10.989 6.941C11.2316 6.885 11.493 6.857 11.773 6.857C12.1416 6.857 12.4823 6.91067 12.795 7.018C13.1123 7.12533 13.3853 7.277 13.614 7.473C13.8426 7.669 14.0223 7.907 14.153 8.187C14.2836 8.467 14.349 8.782 14.349 9.132C14.349 9.48667 14.2953 9.79233 14.188 10.049C14.0853 10.3057 13.9523 10.532 13.789 10.728C13.6303 10.9193 13.4553 11.0873 13.264 11.232C13.0773 11.372 12.9 11.505 12.732 11.631C12.564 11.757 12.4193 11.883 12.298 12.009C12.1813 12.135 12.1136 12.275 12.095 12.429L11.969 13.5H11.115L11.031 12.338C11.0123 12.128 11.052 11.946 11.15 11.792C11.248 11.6333 11.3763 11.4863 11.535 11.351C11.6936 11.211 11.8686 11.0757 12.06 10.945C12.2513 10.8097 12.4286 10.6603 12.592 10.497C12.76 10.3337 12.9 10.1493 13.012 9.944C13.124 9.734 13.18 9.48433 13.18 9.195C13.18 8.99433 13.1403 8.81233 13.061 8.649C12.9816 8.48567 12.8743 8.348 12.739 8.236C12.6036 8.11933 12.4426 8.03067 12.256 7.97C12.074 7.90933 11.878 7.879 11.668 7.879C11.3833 7.879 11.1383 7.914 10.933 7.984C10.7323 8.054 10.562 8.131 10.422 8.215C10.282 8.299 10.1676 8.376 10.079 8.446C9.99495 8.516 9.92495 8.551 9.86895 8.551C9.75228 8.551 9.66128 8.49733 9.59595 8.39L9.26695 7.865ZM10.632 16.23C10.632 16.1087 10.653 15.9943 10.695 15.887C10.7416 15.7797 10.8023 15.6863 10.877 15.607C10.9563 15.5277 11.0496 15.4647 11.157 15.418C11.2643 15.3713 11.3786 15.348 11.5 15.348C11.6213 15.348 11.7356 15.3713 11.843 15.418C11.9503 15.4647 12.0436 15.5277 12.123 15.607C12.2023 15.6863 12.2653 15.7797 12.312 15.887C12.3586 15.9943 12.382 16.1087 12.382 16.23C12.382 16.356 12.3586 16.4727 12.312 16.58C12.2653 16.6827 12.2023 16.7737 12.123 16.853C12.0436 16.9323 11.9503 16.993 11.843 17.035C11.7356 17.0817 11.6213 17.105 11.5 17.105C11.3786 17.105 11.2643 17.0817 11.157 17.035C11.0496 16.993 10.9563 16.9323 10.877 16.853C10.8023 16.7737 10.7416 16.6827 10.695 16.58C10.653 16.4727 10.632 16.356 10.632 16.23Z" fill="white"/>
</svg>
