<svg width="428" height="428" viewBox="0 0 428 428" fill="none" xmlns="http://www.w3.org/2000/svg">
<path fill-rule="evenodd" clip-rule="evenodd" d="M209.5 0.964007C195.819 4.16201 188.482 19.346 194.744 31.5C199.536 40.799 204.517 43.043 222.573 44.037C255.25 45.835 282.065 54.798 309.596 73.123C324.601 83.111 344.873 103.375 354.84 118.35C368.777 139.289 377.887 162.138 382.011 186.5C383.923 197.799 384.145 201.987 383.705 218.5C383.142 239.642 381.444 249.775 375.408 268C355.72 327.448 304.133 371.413 241.651 381.993C225.213 384.777 202.619 384.74 185.875 381.903C131.196 372.638 84.67 337.607 60.493 287.5C49.449 264.613 44.945 245.457 44.267 218.5C43.855 202.139 44.089 197.726 45.953 186.729C49.568 165.403 56.973 145.285 69.044 124C71.833 119.082 72.125 117.8 71.807 111.889C71.528 106.727 70.845 104.364 68.685 101.1C61.2 89.79 45.994 88.029 36.388 97.361C26.687 106.785 12.015 139.691 6.00801 165.5C0.560014 188.903 -0.891986 221.001 2.47901 243.5C9.30901 289.091 28.863 329.016 60.404 361.771C93.93 396.588 135.897 418.07 185 425.55C199.198 427.712 228.876 427.704 243.5 425.532C304.862 416.422 358.325 382.455 392.289 331C415.514 295.815 427.077 256.99 427.15 213.956C427.184 193.667 425.474 179.941 420.471 160.361C399.337 77.632 328.097 14.135 243.5 2.62301C230.211 0.815008 213.607 0.00500739 209.5 0.964007Z" fill="white"/>
</svg>
