<svg width="14" height="15" viewBox="0 0 14 15" fill="none" xmlns="http://www.w3.org/2000/svg">
<g id="&#208;&#187;&#209;&#131;&#208;&#191;&#208;&#176;">
<path id="Vector 13" d="M11.3364 10.4438L10.6201 9.74606L9.22458 11.1787L9.9409 11.8765L11.3364 10.4438ZM12.3021 14.1765C12.6977 14.5619 13.3308 14.5536 13.7162 14.158C14.1016 13.7624 14.0933 13.1292 13.6976 12.7439L12.3021 14.1765ZM9.9409 11.8765L12.3021 14.1765L13.6976 12.7439L11.3364 10.4438L9.9409 11.8765Z" fill="white"/>
<g id="Ellipse 15" filter="url(#filter0_b_504_492)">
<ellipse cx="6.26619" cy="6.62977" rx="5.26619" ry="5.12977" fill="#C480FF" fill-opacity="0.4"/>
<path d="M6.26619 12.2595C9.43832 12.2595 12.0324 9.7513 12.0324 6.62977C12.0324 3.50825 9.43832 1 6.26619 1C3.09406 1 0.5 3.50825 0.5 6.62977C0.5 9.7513 3.09406 12.2595 6.26619 12.2595Z" stroke="white"/>
</g>
</g>
<defs>
<filter id="filter0_b_504_492" x="-4" y="-3.5" width="20.5325" height="20.2595" filterUnits="userSpaceOnUse" color-interpolation-filters="sRGB">
<feFlood flood-opacity="0" result="BackgroundImageFix"/>
<feGaussianBlur in="BackgroundImageFix" stdDeviation="2"/>
<feComposite in2="SourceAlpha" operator="in" result="effect1_backgroundBlur_504_492"/>
<feBlend mode="normal" in="SourceGraphic" in2="effect1_backgroundBlur_504_492" result="shape"/>
</filter>
</defs>
</svg>
