<svg width="24" height="24" viewBox="0 0 24 24" fill="none" xmlns="http://www.w3.org/2000/svg">
<path d="M22.5 8.4001C22.4 8.0001 22 7.7001 21.6 7.7001L20.3 8.0001C20 7.3001 19.6 6.7001 19.2 6.1001L20 5.0001C20.1 4.8001 20.2 4.6001 20.1 4.4001C20.1 4.2001 20 4.0001 19.8 3.9001L17 1.8001C16.8 1.7001 16.6 1.6001 16.4 1.7001C16.2 1.7001 16 1.8001 15.9 2.0001L15.1 3.1001C14.4 2.8001 13.7 2.7001 13 2.6001L12.8 1.3001C12.7 0.900098 12.3 0.600098 11.9 0.600098L8.39999 1.0001C8.19999 1.0001 8.09999 1.1001 7.89999 1.3001C7.79999 1.5001 7.79999 1.7001 7.79999 1.9001L7.99999 3.2001C7.29999 3.5001 6.69999 3.9001 6.09999 4.3001L4.99999 3.5001C4.79999 3.4001 4.59999 3.4001 4.39999 3.4001C4.19999 3.4001 3.99999 3.5001 3.89999 3.7001L1.79999 6.5001C1.69999 6.7001 1.59999 6.9001 1.69999 7.1001C1.79999 7.3001 1.79999 7.5001 1.99999 7.6001L3.09999 8.4001C2.79999 9.1001 2.69999 9.8001 2.59999 10.5001L1.29999 10.7001C1.09999 10.7001 0.899991 10.8001 0.799991 11.0001C0.699991 11.2001 0.599991 11.4001 0.699991 11.6001L0.999991 15.1001C1.09999 15.5001 1.49999 15.8001 1.89999 15.8001L3.19999 15.6001C3.49999 16.3001 3.89999 16.9001 4.29999 17.5001L3.49999 18.6001C3.39999 18.8001 3.29999 19.0001 3.39999 19.2001C3.39999 19.4001 3.49999 19.6001 3.69999 19.7001L6.49999 21.8001C6.79999 22.1001 7.29999 22.0001 7.59999 21.6001L8.39999 20.5001C9.09999 20.8001 9.79999 20.9001 10.5 21.0001L10.7 22.3001C10.7 22.5001 10.8 22.7001 11 22.8001C11.1 22.9001 11.3 23.0001 11.5 23.0001H11.6L15.1 22.5001C15.5 22.4001 15.8 22.0001 15.8 21.6001L15.6 20.3001C16.3 20.0001 16.9 19.6001 17.5 19.2001L18.6 20.0001C18.9 20.3001 19.4 20.2001 19.7 19.8001L21.8 17.0001C22.1 16.7001 22 16.2001 21.6 15.9001L20.5 15.1001C20.8 14.4001 20.9 13.7001 21 13.0001L22.3 12.8001C22.5 12.8001 22.7 12.7001 22.8 12.5001C22.9 12.3001 23 12.1001 22.9 11.9001L22.5 8.4001ZM12.6 17.3001C12.3 17.3001 12.1 17.4001 11.8 17.4001C9.09999 17.4001 6.69999 15.4001 6.29999 12.6001C5.79999 9.5001 7.89999 6.6001 11 6.2001C14.1 5.8001 16.9 7.9001 17.3 11.0001C17.8 14.0001 15.6 16.9001 12.6 17.3001Z" fill="#754CA5" stroke="white" stroke-miterlimit="10"/>
</svg>
